Coordinates
version=1
nRows=15
nColumns=34
inDegrees=no

Units are S.I. units (second, meters, Newtons, ...)
If the header above contains a line with 'inDegrees', this indicates whether rotational values are in degrees (yes) or radians (no).

endheader
time	pelvis_tilt	pelvis_list	pelvis_rotation	pelvis_tx	pelvis_ty	pelvis_tz	hip_flexion_r	hip_adduction_r	hip_rotation_r	knee_angle_r	ankle_angle_r	subtalar_angle_r	mtp_angle_r	hip_flexion_l	hip_adduction_l	hip_rotation_l	knee_angle_l	ankle_angle_l	subtalar_angle_l	mtp_angle_l	lumbar_extension	lumbar_bending	lumbar_rotation	arm_flex_r	arm_add_r	arm_rot_r	elbow_flex_r	pro_sup_r	arm_flex_l	arm_add_l	arm_rot_l	elbow_flex_l	pro_sup_l
9.42	-0.288691	-0.0899476	-0.0467873	-0.235116	0.858423	-0.51203	0.697588	0.144658	-0.0228956	0.613685	0.277632	-0.261553	-0.141515	0.701487	-0.517939	-0.206962	0.581298	0.0974061	0.175518	-0.141515	-0.271925	0.205733	0.00855563	0.577553	-0.475678	0.166426	1.9816	1.25411	0.519625	-0.0493396	0.253881	1.46081	1.66601
9.43	-0.283956	-0.0920444	-0.0468495	-0.233045	0.860742	-0.512042	0.680524	0.146043	-0.0245585	0.597301	0.27544	-0.255493	-0.141515	0.684037	-0.518684	-0.215534	0.566681	0.0957692	0.182166	-0.141515	-0.266903	0.209082	0.00894575	0.56768	-0.476549	0.174553	1.98063	1.25719	0.511629	-0.0575465	0.272357	1.46077	1.65942
9.44	-0.278663	-0.093839	-0.0468996	-0.230979	0.863003	-0.512068	0.66316	0.147305	-0.0256849	0.581472	0.273369	-0.249855	-0.141515	0.665869	-0.519156	-0.224492	0.55216	0.0944341	0.18906	-0.141515	-0.262713	0.212102	0.00942946	0.557911	-0.477536	0.182583	1.97989	1.25977	0.504042	-0.0655062	0.290415	1.46069	1.6548
9.45	-0.272752	-0.0952679	-0.0468823	-0.228929	0.865212	-0.512115	0.645491	0.14832	-0.0263345	0.566278	0.27147	-0.24457	-0.141515	0.646966	-0.519178	-0.233575	0.537733	0.0932958	0.195826	-0.141515	-0.259491	0.214728	0.00998223	0.548251	-0.478625	0.190406	1.97938	1.2617	0.49684	-0.0731461	0.307984	1.46065	1.652
9.46	-0.266226	-0.0963195	-0.0467041	-0.226906	0.867371	-0.512196	0.627576	0.148976	-0.0266561	0.551783	0.269806	-0.239526	-0.141515	0.627463	-0.518592	-0.242404	0.523442	0.0922517	0.202051	-0.141515	-0.257288	0.216972	0.010554	0.5387	-0.479811	0.197903	1.97911	1.26294	0.489997	-0.0803915	0.325012	1.46071	1.65071
9.47	-0.259146	-0.0970364	-0.04628	-0.224924	0.869477	-0.51232	0.609517	0.149216	-0.026828	0.538013	0.268425	-0.234613	-0.141515	0.6076	-0.517318	-0.25057	0.509371	0.0912257	0.207363	-0.141515	-0.256075	0.218906	0.0111116	0.529232	-0.481093	0.20495	1.97909	1.26359	0.483473	-0.0871672	0.341451	1.46088	1.65061
9.48	-0.251622	-0.0975076	-0.0455719	-0.222992	0.871522	-0.512494	0.591439	0.149067	-0.027007	0.524941	0.267344	-0.229749	-0.141515	0.587675	-0.515383	-0.257736	0.495638	0.0901833	0.211495	-0.141515	-0.255755	0.220646	0.0116696	0.519803	-0.482464	0.211435	1.9793	1.26378	0.477209	-0.093402	0.357252	1.46115	1.65132
9.49	-0.2438	-0.09785	-0.0445998	-0.221118	0.873497	-0.512717	0.573475	0.148631	-0.0273091	0.512499	0.266556	-0.224875	-0.141515	0.567999	-0.512917	-0.263685	0.482383	0.0891307	0.214318	-0.141515	-0.256169	0.222326	0.0122908	0.510354	-0.483915	0.217273	1.9797	1.26367	0.471132	-0.0990348	0.372357	1.46143	1.65254
9.5	-0.235846	-0.0981847	-0.043434	-0.219305	0.87539	-0.512982	0.555763	0.148053	-0.0278105	0.50059	0.266041	-0.219936	-0.141515	0.548868	-0.510126	-0.268349	0.469755	0.0881029	0.215846	-0.141515	-0.257123	0.224079	0.0130657	0.500834	-0.485426	0.222428	1.98019	1.26339	0.465148	-0.104019	0.386697	1.46164	1.65407
9.51	-0.227932	-0.0986183	-0.0421783	-0.217556	0.877188	-0.513279	0.538438	0.147484	-0.0285538	0.489114	0.265772	-0.214871	-0.141515	0.530541	-0.507247	-0.271804	0.457896	0.0871466	0.21622	-0.141515	-0.258399	0.22601	0.014089	0.491206	-0.486968	0.22692	1.98065	1.26296	0.45915	-0.108327	0.400188	1.46165	1.65584
9.52	-0.220226	-0.0992303	-0.0409498	-0.215871	0.878882	-0.513594	0.521635	0.147061	-0.029552	0.477985	0.265716	-0.209619	-0.141515	0.51323	-0.504521	-0.274241	0.446929	0.0863041	0.215681	-0.141515	-0.259777	0.228193	0.0154373	0.481465	-0.488493	0.230809	1.98093	1.26234	0.453028	-0.111948	0.412723	1.46133	1.65798
9.53	-0.212881	-0.100068	-0.0398563	-0.214249	0.880463	-0.513915	0.505482	0.146883	-0.0307997	0.467138	0.265828	-0.204127	-0.141515	0.497095	-0.502151	-0.275914	0.436945	0.0855984	0.214526	-0.141515	-0.261054	0.230661	0.0171512	0.471635	-0.48994	0.234186	1.98086	1.26138	0.446675	-0.114888	0.424178	1.46054	1.66082
9.54	-0.206017	-0.101142	-0.0389782	-0.212691	0.881926	-0.514229	0.490093	0.147001	-0.0322829	0.456539	0.266059	-0.198353	-0.141515	0.482237	-0.500277	-0.277089	0.427983	0.085026	0.213053	-0.141515	-0.262062	0.233411	0.0192254	0.461765	-0.491232	0.237147	1.9803	1.25993	0.440003	-0.117164	0.434418	1.45914	1.66475
9.55	-0.199718	-0.102433	-0.0383592	-0.211196	0.883269	-0.51453	0.475557	0.147411	-0.0339869	0.446185	0.266354	-0.192279	-0.141515	0.468695	-0.498963	-0.277998	0.420035	0.0845566	0.211519	-0.141515	-0.262683	0.236403	0.0216102	0.451923	-0.492293	0.239767	1.97913	1.25787	0.432948	-0.118805	0.443329	1.45704	1.67008
9.56	-0.194023	-0.1039	-0.038005	-0.209765	0.884495	-0.514812	0.461927	0.148076	-0.0358934	0.436092	0.266658	-0.185914	-0.141515	0.456451	-0.498206	-0.278822	0.413044	0.0841406	0.210129	-0.141515	-0.262858	0.239572	0.0242221	0.442181	-0.493052	0.242079	1.97731	1.25523	0.425474	-0.119838	0.450829	1.45421	1.67676
